# xmcd
# Track frame offsets:
# 150
# 13527
# 32172
# 46795
# 58397
# 65570
# 81145
# 98020
# 112115
# 125440
# 140912
#
# Disc length: 2161 seconds
# Revision: 3
# Processed by: cddbd v1.5PL3 Copyright (c) Steve Scherf et al.
# Submitted via: VisiTrax 2.9.9.202 - For more info visit www.synapsa.com
#
DISCID=9b086f0b
DTITLE=Tamra Rosanes - Good Times
DYEAR=1992
DGENRE=Country
TTITLE0=Let The Good Times Roll
TTITLE1=You Got Gold
TTITLE2=One Hundred And Two
TTITLE3=Rub It In
TTITLE4=Hope I Don't Talk In My Sleep
TTITLE5=I'll Cry For Yours (Will You Cry For Mine)
TTITLE6=My Night To Howl
TTITLE7=Nothing On But The Radio
TTITLE8=True Love
TTITLE9=Nothin' To Do With You
TTITLE10=Love Has No Boundaries
EXTD=EMI-Medley Denmark 1992\nEMI 7803672
EXTT0=
EXTT1=
EXTT2=
EXTT3=
EXTT4=
EXTT5=
EXTT6=
EXTT7=
EXTT8=
EXTT9=
EXTT10=
PLAYORDER=
